<svg width="60" height="60" viewBox="0 0 60 60" fill="none" xmlns="http://www.w3.org/2000/svg">
    <path d="M46.344 19.4996H42.622L33.49 28.6276C33.8045 29.4292 33.8334 30.3146 33.5719 31.135C33.3103 31.9554 32.7743 32.6607 32.0539 33.1324C31.3334 33.604 30.4726 33.8132 29.6161 33.7248C28.7595 33.6364 27.9596 33.2557 27.3507 32.6468C26.7418 32.038 26.3612 31.238 26.2727 30.3815C26.1843 29.5249 26.3935 28.6641 26.8652 27.9437C27.3368 27.2233 28.0421 26.6872 28.8625 26.4257C29.6829 26.1641 30.5684 26.1931 31.37 26.5076L40.5 17.3776V13.6556C40.5001 13.1575 40.698 12.6799 41.05 12.3276L44.51 8.86757C44.5739 8.80294 44.6542 8.75703 44.7424 8.73482C44.8305 8.71261 44.9231 8.71495 45.01 8.74157C45.188 8.79357 45.32 8.94157 45.356 9.12357L46.276 13.7256L50.876 14.6456C51.056 14.6816 51.204 14.8136 51.256 14.9916C51.2822 15.078 51.2846 15.17 51.2627 15.2577C51.2409 15.3454 51.1957 15.4255 51.132 15.4896L47.67 18.9496C47.4959 19.1239 47.2892 19.2622 47.0617 19.3566C46.8342 19.451 46.5903 19.4995 46.344 19.4996Z" fill="#387D1B"/>
    <path d="M11.25 30C11.25 34.9728 13.2254 39.742 16.7417 43.2583C20.2581 46.7746 25.0272 48.75 30 48.75C32.4623 48.75 34.9005 48.265 37.1753 47.3228C39.4502 46.3805 41.5172 44.9994 43.2583 43.2583C44.9994 41.5172 46.3805 39.4502 47.3227 37.1753C48.265 34.9005 48.75 32.4623 48.75 30C48.75 28.204 48.498 26.468 48.028 24.826C47.9346 24.449 47.991 24.0504 48.1855 23.7142C48.38 23.378 48.6973 23.1303 49.0707 23.0233C49.4441 22.9163 49.8444 22.9583 50.1875 23.1404C50.5305 23.3226 50.7895 23.6307 50.91 24C51.458 25.908 51.75 27.92 51.75 30C51.75 42.012 42.012 51.75 30 51.75C17.988 51.75 8.25 42.012 8.25 30C8.25 17.988 17.988 8.25001 30 8.25001C32.03 8.24801 34.048 8.53001 36 9.08801C36.1903 9.1414 36.3682 9.23188 36.5235 9.35425C36.6787 9.47662 36.8082 9.62847 36.9046 9.80106C37.0009 9.97366 37.0622 10.1636 37.0849 10.36C37.1076 10.5563 37.0913 10.7552 37.0369 10.9453C36.9825 11.1353 36.891 11.3127 36.7678 11.4673C36.6446 11.6218 36.492 11.7505 36.3189 11.8459C36.1458 11.9414 35.9555 12.0016 35.759 12.0233C35.5626 12.0449 35.3637 12.0275 35.174 11.972C33.4914 11.4915 31.7499 11.2485 30 11.25C25.0272 11.25 20.2581 13.2255 16.7417 16.7418C13.2254 20.2581 11.25 25.0272 11.25 30Z" fill="#387D1B"/>
    <path d="M20.2505 29.9996C20.256 31.3242 20.5315 32.6338 21.0602 33.8485C21.5888 35.0631 22.3594 36.1572 23.325 37.0641C24.2905 37.9709 25.4308 38.6715 26.6762 39.1229C27.9215 39.5744 29.2458 39.7673 30.5682 39.6898C31.8906 39.6124 33.1833 39.2663 34.3675 38.6725C35.5516 38.0788 36.6024 37.25 37.4555 36.2366C38.3086 35.2233 38.9463 34.0467 39.3295 32.7787C39.7127 31.5106 39.8335 30.1778 39.6845 28.8616C39.6425 28.595 39.6734 28.322 39.7739 28.0716C39.8744 27.8211 40.0408 27.6025 40.2554 27.439C40.47 27.2754 40.7249 27.1729 40.993 27.1424C41.2612 27.1118 41.5326 27.1544 41.7785 27.2656C42.2805 27.4896 42.6185 27.9676 42.6625 28.5156C42.973 31.1461 42.4563 33.808 41.1842 36.1313C39.9121 38.4546 37.9479 40.3239 35.5644 41.4793C33.1809 42.6347 30.4967 43.0189 27.8848 42.5785C25.273 42.138 22.8632 40.8948 20.9905 39.0216C19.1183 37.1504 17.8747 34.7431 17.4323 32.1333C16.9899 29.5236 17.3706 26.8409 18.5215 24.4573C19.6724 22.0736 21.5366 20.1072 23.8554 18.8308C26.1743 17.5543 28.8329 17.031 31.4625 17.3336C31.6613 17.352 31.8544 17.41 32.0305 17.504C32.2066 17.5981 32.3621 17.7263 32.488 17.8813C32.6139 18.0362 32.7076 18.2147 32.7636 18.4063C32.8196 18.598 32.8368 18.7988 32.8142 18.9972C32.7916 19.1956 32.7296 19.3874 32.6318 19.5615C32.5341 19.7356 32.4026 19.8884 32.245 20.011C32.0875 20.1336 31.907 20.2235 31.7143 20.2755C31.5215 20.3274 31.3203 20.3404 31.1225 20.3136C29.7565 20.1557 28.3726 20.2884 27.0616 20.7031C25.7506 21.1177 24.542 21.8049 23.5154 22.7196C22.4887 23.6343 21.667 24.7558 21.1043 26.0104C20.5417 27.2651 20.2507 28.6245 20.2505 29.9996Z" fill="#387D1B"/>
</svg>
