<svg width="61" height="60" viewBox="0 0 61 60" fill="none" xmlns="http://www.w3.org/2000/svg">
    <path d="M39.6984 10H48.8064L49.0064 10.028L49.2044 10.084L49.3244 10.136C49.4844 10.204 49.6304 10.306 49.7624 10.436L49.8424 10.524L49.9304 10.638L50.0384 10.818L50.1164 10.998L50.1544 11.126L50.1824 11.254L50.2004 11.444V20.508C50.2002 20.888 50.0559 21.2539 49.7964 21.5316C49.537 21.8093 49.1818 21.9781 48.8026 22.0041C48.4234 22.03 48.0486 21.911 47.7538 21.6711C47.459 21.4313 47.2662 21.0885 47.2144 20.712L47.2004 20.508V15.118L34.3204 27.998C34.0664 28.252 33.7297 28.4065 33.3715 28.4333C33.0132 28.4601 32.6573 28.3574 32.3684 28.144L32.2004 28L26.1404 22.18L14.7604 33.558C14.4927 33.8264 14.1334 33.9835 13.7546 33.9977C13.3758 34.012 13.0057 33.8823 12.7187 33.6348C12.4316 33.3872 12.2489 33.0402 12.2073 32.6635C12.1657 32.2867 12.2683 31.9082 12.4944 31.604L12.6404 31.436L25.0804 18.996C25.3346 18.7423 25.6714 18.5882 26.0296 18.5618C26.3878 18.5353 26.7437 18.6383 27.0324 18.852L27.2004 18.996L33.2604 24.816L45.0764 13H39.6964C39.3342 12.9995 38.9845 12.868 38.7117 12.6298C38.439 12.3916 38.2616 12.0628 38.2124 11.704L38.1984 11.5C38.1984 11.1375 38.3296 10.7873 38.5679 10.5141C38.8061 10.241 39.1353 10.0633 39.4944 10.014L39.6984 10ZM13.7004 40C14.0982 40 14.4797 40.158 14.761 40.4393C15.0423 40.7206 15.2004 41.1022 15.2004 41.5V48.5C15.2004 48.8978 15.0423 49.2794 14.761 49.5607C14.4797 49.842 14.0982 50 13.7004 50C13.3025 50 12.921 49.842 12.6397 49.5607C12.3584 49.2794 12.2004 48.8978 12.2004 48.5V41.5C12.2004 41.1022 12.3584 40.7206 12.6397 40.4393C12.921 40.158 13.3025 40 13.7004 40ZM25.2004 33.5C25.2004 33.1022 25.0423 32.7206 24.761 32.4393C24.4797 32.158 24.0982 32 23.7004 32C23.3025 32 22.921 32.158 22.6397 32.4393C22.3584 32.7206 22.2004 33.1022 22.2004 33.5V48.5C22.2004 48.8978 22.3584 49.2794 22.6397 49.5607C22.921 49.842 23.3025 50 23.7004 50C24.0982 50 24.4797 49.842 24.761 49.5607C25.0423 49.2794 25.2004 48.8978 25.2004 48.5V33.5ZM33.7004 36C34.0982 36 34.4797 36.158 34.761 36.4393C35.0423 36.7206 35.2004 37.1022 35.2004 37.5V48.5C35.2004 48.8978 35.0423 49.2794 34.761 49.5607C34.4797 49.842 34.0982 50 33.7004 50C33.3025 50 32.921 49.842 32.6397 49.5607C32.3584 49.2794 32.2004 48.8978 32.2004 48.5V37.5C32.2004 37.1022 32.3584 36.7206 32.6397 36.4393C32.921 36.158 33.3025 36 33.7004 36ZM45.2004 27.5C45.2004 27.1022 45.0423 26.7206 44.761 26.4393C44.4797 26.158 44.0982 26 43.7004 26C43.3025 26 42.921 26.158 42.6397 26.4393C42.3584 26.7206 42.2004 27.1022 42.2004 27.5V48.5C42.2004 48.8978 42.3584 49.2794 42.6397 49.5607C42.921 49.842 43.3025 50 43.7004 50C44.0982 50 44.4797 49.842 44.761 49.5607C45.0423 49.2794 45.2004 48.8978 45.2004 48.5V27.5Z" fill="#387D1B"/>
</svg>
