<svg width="61" height="60" viewBox="0 0 61 60" fill="none" xmlns="http://www.w3.org/2000/svg">
    <path d="M30.8001 43.1L30.6001 43.3L30.3801 43.1C20.8801 34.48 14.6001 28.78 14.6001 23C14.6001 19 17.6001 16 21.6001 16C24.6801 16 27.6801 18 28.7401 20.72H32.4601C33.5201 18 36.5201 16 39.6001 16C43.6001 16 46.6001 19 46.6001 23C46.6001 28.78 40.3201 34.48 30.8001 43.1ZM39.6001 12C36.1201 12 32.7801 13.62 30.6001 16.16C28.4201 13.62 25.0801 12 21.6001 12C15.4401 12 10.6001 16.82 10.6001 23C10.6001 30.54 17.4001 36.72 27.7001 46.06L30.6001 48.7L33.5001 46.06C43.8001 36.72 50.6001 30.54 50.6001 23C50.6001 16.82 45.7601 12 39.6001 12Z" fill="#387D1B"/>
</svg>
