<svg width="61" height="60" viewBox="0 0 61 60" fill="none" xmlns="http://www.w3.org/2000/svg">
    <path d="M46.7444 19.4996H43.0224L33.8903 28.6276C34.2049 29.4292 34.2338 30.3146 33.9723 31.135C33.7107 31.9554 33.1747 32.6607 32.4543 33.1324C31.7338 33.604 30.873 33.8132 30.0165 33.7248C29.1599 33.6364 28.36 33.2557 27.7511 32.6468C27.1422 32.038 26.7616 31.238 26.6731 30.3815C26.5847 29.5249 26.7939 28.6641 27.2656 27.9437C27.7372 27.2233 28.4425 26.6872 29.2629 26.4257C30.0833 26.1641 30.9688 26.1931 31.7703 26.5076L40.9003 17.3776V13.6556C40.9005 13.1575 41.0983 12.6799 41.4503 12.3276L44.9103 8.86757C44.9743 8.80294 45.0546 8.75703 45.1428 8.73482C45.2309 8.71261 45.3234 8.71495 45.4103 8.74157C45.5883 8.79357 45.7203 8.94157 45.7563 9.12357L46.6763 13.7256L51.2763 14.6456C51.4563 14.6816 51.6043 14.8136 51.6563 14.9916C51.6826 15.078 51.6849 15.17 51.6631 15.2577C51.6413 15.3454 51.5961 15.4255 51.5323 15.4896L48.0703 18.9496C47.8963 19.1239 47.6896 19.2622 47.4621 19.3566C47.2346 19.451 46.9907 19.4995 46.7444 19.4996Z" fill="#387D1B"/>
    <path d="M11.6504 30C11.6504 34.9728 13.6258 39.742 17.1421 43.2583C20.6584 46.7746 25.4276 48.75 30.4004 48.75C32.8627 48.75 35.3008 48.265 37.5757 47.3228C39.8506 46.3805 41.9175 44.9994 43.6586 43.2583C45.3997 41.5172 46.7809 39.4502 47.7231 37.1753C48.6654 34.9005 49.1504 32.4623 49.1504 30C49.1504 28.204 48.8984 26.468 48.4284 24.826C48.335 24.449 48.3914 24.0504 48.5859 23.7142C48.7804 23.378 49.0977 23.1303 49.4711 23.0233C49.8445 22.9163 50.2448 22.9583 50.5879 23.1404C50.9309 23.3226 51.1899 23.6307 51.3104 24C51.8584 25.908 52.1504 27.92 52.1504 30C52.1504 42.012 42.4124 51.75 30.4004 51.75C18.3884 51.75 8.65039 42.012 8.65039 30C8.65039 17.988 18.3884 8.25001 30.4004 8.25001C32.4304 8.24801 34.4484 8.53001 36.4004 9.08801C36.5907 9.1414 36.7686 9.23188 36.9239 9.35425C37.0791 9.47662 37.2086 9.62847 37.305 9.80106C37.4013 9.97366 37.4626 10.1636 37.4853 10.36C37.508 10.5563 37.4917 10.7552 37.4373 10.9453C37.3829 11.1353 37.2914 11.3127 37.1682 11.4673C37.045 11.6218 36.8924 11.7505 36.7193 11.8459C36.5462 11.9414 36.3559 12.0016 36.1594 12.0233C35.9629 12.0449 35.7641 12.0275 35.5744 11.972C33.8918 11.4915 32.1503 11.2485 30.4004 11.25C25.4276 11.25 20.6584 13.2255 17.1421 16.7418C13.6258 20.2581 11.6504 25.0272 11.6504 30Z" fill="#387D1B"/>
    <path d="M20.6509 29.9996C20.6564 31.3242 20.9319 32.6338 21.4605 33.8485C21.9892 35.0631 22.7598 36.1572 23.7253 37.0641C24.6909 37.9709 25.8312 38.6715 27.0766 39.1229C28.3219 39.5744 29.6462 39.7673 30.9686 39.6898C32.291 39.6124 33.5837 39.2663 34.7679 38.6725C35.952 38.0788 37.0028 37.25 37.8559 36.2366C38.709 35.2233 39.3467 34.0467 39.7299 32.7787C40.1131 31.5106 40.2339 30.1778 40.0848 28.8616C40.0429 28.595 40.0737 28.322 40.1743 28.0716C40.2748 27.8211 40.4412 27.6025 40.6558 27.439C40.8704 27.2754 41.1253 27.1729 41.3934 27.1424C41.6616 27.1118 41.9329 27.1544 42.1789 27.2656C42.6809 27.4896 43.0188 27.9676 43.0628 28.5156C43.3734 31.1461 42.8567 33.808 41.5846 36.1313C40.3125 38.4546 38.3483 40.3239 35.9648 41.4793C33.5813 42.6347 30.8971 43.0189 28.2852 42.5785C25.6734 42.138 23.2636 40.8948 21.3908 39.0216C19.5186 37.1504 18.2751 34.7431 17.8327 32.1333C17.3903 29.5236 17.771 26.8409 18.9219 24.4573C20.0728 22.0736 21.937 20.1072 24.2558 18.8308C26.5747 17.5543 29.2332 17.031 31.8629 17.3336C32.0616 17.352 32.2547 17.41 32.4309 17.504C32.607 17.5981 32.7625 17.7263 32.8884 17.8813C33.0143 18.0362 33.108 18.2147 33.164 18.4063C33.22 18.598 33.2372 18.7988 33.2146 18.9972C33.192 19.1956 33.13 19.3874 33.0322 19.5615C32.9345 19.7356 32.803 19.8884 32.6454 20.011C32.4879 20.1336 32.3074 20.2235 32.1146 20.2755C31.9219 20.3274 31.7207 20.3404 31.5229 20.3136C30.1569 20.1557 28.773 20.2884 27.462 20.7031C26.151 21.1177 24.9424 21.8049 23.9157 22.7196C22.8891 23.6343 22.0674 24.7558 21.5047 26.0104C20.9421 27.2651 20.6511 28.6245 20.6509 29.9996Z" fill="#387D1B"/>
</svg>

